# xmcd
#
# Track frame offsets: 
#        150
#        11124
#        20942
#        34190
#        46466
#        58180
#        68102
#        76787
#        87153
#        98860
#        109081
#        123705
#        139167
#        152724
#        163585
#        177866
#        193598
#        204421
#        216463
#        226846
#        241513
#        257397
#        265682
#        277515
#        288385
#        301735
#        310325
#        322550
#
# Disc length: 4649 seconds
#
# Revision: 0
# Processed by: cddbd v1.5.2PL0 Copyright (c) Steve Scherf et al.
# Submitted via: ExactAudioCopy v0.99pb4
#
DISCID=7812271c
DTITLE=Stonemans - In All Honesty
DYEAR=1969
DGENRE=Bluegrass
TTITLE0=Proud to be Together
TTITLE1=Who'll Stop The Rain 
TTITLE2=I'll Be Here In The Morning
TTITLE3=According To The Plan 
TTITLE4=Hang Them All 
TTITLE5=Colossus 
TTITLE6=Six White Horses 
TTITLE7=Dont Look Now 
TTITLE8=Somebody's Waiting For Me 
TTITLE9=Lets Get Together
TTITLE10=California Blues 
TTITLE11=Looks Like Babys Gone 
TTITLE12=Doesn't Anybody Know My Name 
TTITLE13=Jimmy's Thing 
TTITLE14=Railroad Bill 
TTITLE15=Little Old Log Cabin In The Lane 
TTITLE16=Shades Of Yesterday 
TTITLE17=Turner's Turnpike 
TTITLE18=But You Know I Love You 
TTITLE19=Two kids From Duluth, Minnesota 
TTITLE20=What Am I Doing Hanging Round 
TTITLE21=Banjo Signal 
TTITLE22=Weed Out My Badness 
TTITLE23=All The Guys That Turn Me On Turn Me Down 
TTITLE24=Tecumseh Valley 
TTITLE25=Wildwood Flower 
TTITLE26=In The Plan 
TTITLE27=Me And Bobby McGee 
EXTD=
EXTT0=
EXTT1=
EXTT2=
EXTT3=
EXTT4=
EXTT5=
EXTT6=
EXTT7=
EXTT8=
EXTT9=
EXTT10=
EXTT11=
EXTT12=
EXTT13=
EXTT14=
EXTT15=
EXTT16=
EXTT17=
EXTT18=
EXTT19=
EXTT20=
EXTT21=
EXTT22=
EXTT23=
EXTT24=
EXTT25=
EXTT26=
EXTT27=
PLAYORDER=
